<svg xmlns="http://www.w3.org/2000/svg" height="1024" preserveAspectRatio="none" style="display: block;" version="1.1" viewBox="0 0 2048 2048" width="1024">
<defs>
	<linearGradient gradientUnits="userSpaceOnUse" id="Gradient1" x1="1012.86" x2="1034.21" y1="392.087" y2="1655.93">
		<stop class="stop0" offset="0" stop-color="rgb(173,49,237)" stop-opacity="1"></stop>
		<stop class="stop1" offset="1" stop-color="rgb(78,109,248)" stop-opacity="1"></stop>
	</linearGradient>
</defs>
<path d="M 0 0 L 341.192 0 L 1706.85 0 L 2048 0 L 2048 342.367 L 2048 1705.65 L 2048 2048 L 1704.62 2048 L 344.365 2048 L 0 2048 L 0 1708.54 L 0 341.485 L 0 0 z" fill="rgb(14,16,29)" transform="translate(0,0)"></path>
<path d="M 1704.62 2048 C 1713.44 2045.71 1740.58 2043.39 1753.63 2040.78 C 1807.94 2029.48 1859.03 2006.17 1903.15 1972.55 C 1969.6 1921.9 2016.89 1850.18 2037.27 1769.14 C 2043.2 1745.53 2044.68 1729.34 2048 1705.65 L 2048 2048 L 1704.62 2048 z" fill="rgb(255,255,255)" transform="translate(0,0)"></path>
<path d="M 0 1708.54 C 2.69444 1728.99 5.12231 1747.75 10.0687 1767.88 C 43.5496 1904.1 154.786 2012.76 292.733 2040.24 C 309.114 2043.51 329.155 2044.35 344.365 2048 L 0 2048 L 0 1708.54 z" fill="rgb(255,255,255)" transform="translate(0,0)"></path>
<path d="M 1706.85 0 L 2048 0 L 2048 342.367 C 2045.45 331.835 2043.5 307.709 2040.61 293.444 C 2029.46 240.307 2006.91 190.227 1974.49 146.671 C 1924.2 80.1311 1854.04 32.3615 1773.28 11.872 C 1750.72 6.14957 1729.77 3.185 1706.85 0 z" fill="rgb(255,255,255)" transform="translate(0,0)"></path>
<path d="M 0 0 L 341.192 0 C 318.082 3.27645 298.726 5.88977 276.096 11.6317 C 194.174 32.0324 121.944 80.3922 71.8734 148.364 C 40.6619 189.905 19.3971 239.749 7.80549 290.404 C 3.9264 307.355 3.31767 325.575 0 341.485 L 0 0 z" fill="rgb(255,255,255)" transform="translate(0,0)"></path>
<path d="M 1019.44 390.192 C 1025.79 389.922 1031.57 390.774 1037.21 393.758 C 1057.81 404.656 1078.21 417.139 1098.49 428.759 L 1250.11 517.102 L 1479.76 650.109 C 1510.46 668.01 1541.62 685.17 1572.21 703.271 C 1584.07 710.291 1585.86 720.717 1585.94 733.384 C 1586.05 750.792 1586 768.192 1585.99 785.597 L 1585.92 892.274 L 1585.42 1194.84 C 1585.24 1236.9 1585.16 1279.04 1584.96 1321.09 C 1584.73 1325.08 1585.14 1331.32 1582.88 1334.72 C 1573.17 1349.39 1549.89 1359.45 1534.58 1368.18 L 1462.1 1409.73 L 1170.22 1578.05 L 1082.31 1629.26 C 1072 1635.36 1039.43 1655.74 1030.03 1658.68 C 1011.65 1659.9 1000.34 1650.12 985.117 1641.13 C 972.129 1633.51 959.078 1626 945.964 1618.59 L 784.015 1525.01 L 569.261 1400.54 C 538.879 1382.84 507.153 1366.18 477.619 1347.22 C 471.792 1343.48 467.018 1339.33 464.634 1332.69 C 460.618 1321.51 462.747 1262.3 462.742 1247.5 L 462.718 1105.95 L 462.956 865.136 C 462.948 819.623 462.772 774.101 463.042 728.592 C 463.074 723.187 464.462 715.21 467.89 710.906 C 472.334 705.324 483.094 699.101 489.412 695.363 C 526.664 673.322 564.392 652.095 601.823 630.349 C 685.226 581.132 768.962 532.481 853.024 484.4 C 891.283 461.857 929.676 439.545 968.202 417.465 C 979.118 411.233 1008.64 393.474 1019.44 390.192 z" fill="url(#Gradient1)" transform="translate(0,0)"></path>
<path d="M 1022.09 815.777 C 1025.47 815.84 1162.53 897.108 1175.76 904.44 C 1170.25 927.361 1180.85 951.255 1205 956.719 C 1204.76 1011.42 1204.88 1066.12 1205.35 1120.82 C 1145.71 1156.29 1085.72 1191.18 1025.4 1225.49 C 1024.48 1225.56 1023.56 1225.63 1022.64 1225.7 C 980.267 1201.08 877.514 1142.42 842.051 1119.92 L 841.985 955.648 C 863.012 945.252 873.2 929.767 868.657 906.049 C 919.043 875.165 971.231 847.124 1022.09 815.777 z" fill="rgb(14,16,29)" transform="translate(0,0)"></path>
<path d="M 830.59 1137.84 C 876.753 1166.44 925.376 1192.68 972.197 1220.29 C 984.875 1227.76 998.807 1236.41 1011.88 1242.97 L 1012.84 1466.24 C 976.692 1445.9 941.44 1423.9 905.348 1403.34 L 662.425 1262.82 C 666.251 1252.83 666.07 1245.58 663.403 1235.3 C 718.727 1204.02 775.617 1170.05 830.59 1137.84 z" fill="rgb(14,16,29)" transform="translate(0,0)"></path>
<path d="M 1215.93 1136.98 C 1224.6 1144.24 1255.72 1161.46 1266.31 1167.68 C 1303.15 1189.34 1341.03 1209.65 1377.81 1231.45 C 1375.41 1244.1 1374.75 1252.54 1379.3 1264.78 C 1366.8 1272.33 1354.16 1279.8 1341.46 1287 C 1274.22 1325.18 1208.1 1366.36 1140.54 1403.89 C 1105.31 1423.85 1069.08 1446.56 1034.08 1465.56 L 1034.05 1243.21 C 1076.63 1220.15 1118.07 1192.94 1160.74 1169.65 C 1178.32 1160.05 1199.67 1148.2 1215.93 1136.98 z" fill="rgb(14,16,29)" transform="translate(0,0)"></path>
<path d="M 1034.1 581.264 C 1040.47 584.05 1062.47 597.518 1069.6 601.667 L 1145.76 645.944 C 1232.48 695.733 1318.86 746.114 1404.89 797.087 C 1382.63 809.843 1360.52 822.86 1338.57 836.134 C 1310.02 852.668 1279.28 869.631 1251.45 886.92 C 1230.99 866.174 1205.58 867.855 1184.94 887.365 C 1162.16 874.599 1139.58 860.821 1117.02 847.574 C 1089.74 831.558 1060.85 815.774 1034.25 798.808 L 1034.1 581.264 z" fill="rgb(14,16,29)" transform="translate(0,0)"></path>
<path d="M 1010.87 583.038 C 1012.79 586 1012.16 777.724 1012.18 800.071 L 858.609 889.147 C 839.516 869.177 817.927 869.335 796.558 886.347 C 771.224 870.289 736.993 851.996 710.546 836.837 C 687.328 823.929 664.135 808.837 641.07 796.594 C 675.178 778.444 710.146 756.27 743.709 736.856 C 832.41 684.975 921.465 633.701 1010.87 583.038 z" fill="rgb(14,16,29)" transform="translate(0,0)"></path>
<path d="M 1414.91 815.221 C 1416.49 818.514 1414.96 1166.55 1415.18 1202.71 C 1404 1205.35 1397.83 1207.32 1388.9 1214.97 C 1376.57 1208.79 1362.35 1200.05 1350.27 1193.05 L 1285.82 1155.9 C 1266 1144.93 1246.47 1133.44 1227.25 1121.45 L 1227.06 959.02 C 1256.19 952.651 1265.63 930.444 1261.54 903.139 C 1311.38 876.895 1365.9 843.834 1414.91 815.221 z" fill="rgb(14,16,29)" transform="translate(0,0)"></path>
<path d="M 632.014 815.772 C 683.861 845.354 735.511 875.282 786.96 905.553 C 783.777 932.168 793.25 951.219 820.619 956.654 C 819.901 1011.12 819.652 1065.59 819.873 1120.06 C 800.479 1132.72 779.599 1144.63 759.582 1156.41 C 725.395 1176.41 687.645 1199.54 652.948 1217.67 C 645.951 1212.71 640.284 1209.93 632.315 1207.11 L 632.014 815.772 z" fill="rgb(14,16,29)" transform="translate(0,0)"></path>
<path d="M 1010.88 470.989 C 1013.04 474.742 1012.09 546.494 1012.06 557.12 L 760.584 703.488 C 714.726 730.053 665.671 757.034 620.677 784.162 C 605.177 775.834 588.773 766.055 573.388 757.286 L 545.577 741.158 C 557.251 733.157 580.689 720.283 593.243 713.002 L 691.921 656.035 L 1010.88 470.989 z" fill="rgb(14,16,29)" transform="translate(0,0)"></path>
<path d="M 1034.1 469.383 C 1045.03 474.484 1067.18 488.648 1078.31 495.262 L 1161.31 543.969 L 1357.74 659.067 C 1405.37 687.26 1453.18 715.158 1501.16 742.76 C 1492.87 748.214 1482.94 753.681 1474.28 758.713 C 1459.89 767.317 1443.43 775.882 1428.61 784.101 C 1408.22 774.087 1385.75 760.749 1365.96 749.331 L 1271 694.065 C 1192.65 648.508 1111.83 602.988 1034.29 556.473 C 1034.95 528.664 1034.13 497.468 1034.1 469.383 z" fill="rgb(14,16,29)" transform="translate(0,0)"></path>
<path d="M 1452.05 1276.8 C 1467.88 1286.77 1485.13 1295.37 1501.44 1305.67 C 1480.5 1318.77 1457.61 1331.35 1436.12 1343.89 L 1291.3 1427.62 C 1214.96 1471.52 1138.21 1517.74 1061.55 1560.64 C 1052.58 1565.94 1043.51 1571.5 1034.23 1576.17 L 1034.19 1490.22 C 1059.07 1474.78 1086.53 1459.85 1111.99 1444.97 L 1291.93 1340.19 C 1321.58 1322.99 1363.9 1300.21 1391.71 1281.64 C 1415.32 1296.36 1430.81 1294.63 1452.05 1276.8 z" fill="rgb(14,16,29)" transform="translate(0,0)"></path>
<path d="M 592.244 1277.14 C 611.369 1295.99 630.895 1294.91 652.016 1280.68 C 734.561 1329.28 817.402 1377.37 900.535 1424.96 C 937.97 1446.62 975.162 1467.15 1012 1489.93 L 1012.17 1576.63 L 987.561 1561.92 L 685.771 1387.12 C 639.058 1360.21 590.203 1329.86 543.34 1304.31 C 553.414 1296.82 579.994 1283.56 592.244 1277.14 z" fill="rgb(14,16,29)" transform="translate(0,0)"></path>
<path d="M 1511.11 760.816 L 1512.29 760.999 C 1515.1 766.642 1513.09 1238.35 1513.12 1288.38 L 1463.8 1260.85 L 1461.99 1260.05 C 1461.66 1259.55 1461.33 1259.05 1461 1258.55 C 1463.95 1244.21 1462.85 1230.03 1452.19 1218.95 C 1447.69 1214.25 1443.97 1211.74 1437.85 1208.4 C 1436.46 1073.85 1438.01 937.776 1437.74 803.136 C 1462.17 788.897 1486.72 775.224 1511.11 760.816 z" fill="rgb(14,16,29)" transform="translate(0,0)"></path>
<path d="M 533.33 758.28 C 538.49 760.486 551.275 768.21 556.433 771.232 C 574.114 781.65 591.644 792.323 609.017 803.247 L 609.185 1208.11 C 584.811 1218.01 577.537 1233.38 581.505 1258.65 L 581.537 1258.81 C 580.424 1262.24 540.04 1283.89 533.974 1287.3 L 533.33 758.28 z" fill="rgb(14,16,29)" transform="translate(0,0)"></path>
<path d="M 1213.32 894.195 C 1225.44 891.429 1237.53 898.99 1240.34 911.108 C 1243.16 923.227 1235.65 935.341 1223.54 938.209 C 1211.37 941.094 1199.16 933.529 1196.33 921.338 C 1193.5 909.148 1201.11 896.976 1213.32 894.195 z" fill="rgb(14,16,29)" transform="translate(0,0)"></path>
<metadata><recraft-signature>{"signed_by": "recraft", "signature_b64": "B0tSyMSzq74cosdt+kN+Y/n8Zl1JwzOrtaogrrz9ui8cz4ae+eHMbIwXliv12x35sRfWWb6A5lt5oc8mVOpsBw==", "signing_algo": "Ed25519", "generation_timestamp": 1783811667, "identifier": "a8e060d3-a992-4807-8ffa-a0ff3c54e5a2"}</recraft-signature></metadata></svg>