<svg xmlns="http://www.w3.org/2000/svg" viewBox="0 0 512 512" role="img" aria-label="Coolify MCP logo">
  <defs>
    <linearGradient id="g" x1="0%" y1="0%" x2="100%" y2="100%">
      <stop offset="0%" stop-color="#a855f7"/>
      <stop offset="55%" stop-color="#9333ea"/>
      <stop offset="100%" stop-color="#6366f1"/>
    </linearGradient>
    <filter id="s" x="-20%" y="-20%" width="140%" height="140%">
      <feDropShadow dx="0" dy="8" stdDeviation="12" flood-color="#6366f1" flood-opacity="0.35"/>
    </filter>
  </defs>
  <rect width="512" height="512" rx="112" fill="#0b0f1a"/>
  <g filter="url(#s)">
    <path fill="url(#g)" d="M256 72l148 85.5v171L256 414 108 328.5v-171z"/>
    <path fill="none" stroke="#c4b5fd" stroke-width="6" opacity="0.55" d="M256 96l124 71.6v143.2L256 382.4 132 310.8V167.6z"/>
  </g>
  <g fill="#fff" opacity="0.95">
    <rect x="238" y="168" width="36" height="176" rx="8"/>
    <rect x="176" y="208" width="72" height="20" rx="6" transform="rotate(-30 212 218)"/>
    <rect x="176" y="248" width="72" height="20" rx="6" transform="rotate(-30 212 258)"/>
    <rect x="176" y="288" width="72" height="20" rx="6" transform="rotate(-30 212 298)"/>
    <rect x="264" y="208" width="72" height="20" rx="6" transform="rotate(30 300 218)"/>
    <rect x="264" y="248" width="72" height="20" rx="6" transform="rotate(30 300 258)"/>
    <rect x="264" y="288" width="72" height="20" rx="6" transform="rotate(30 300 298)"/>
  </g>
  <circle cx="392" cy="120" r="10" fill="#22d3ee"/>
  <circle cx="120" cy="392" r="8" fill="#a78bfa"/>
  <path d="M392 120 L320 168" stroke="#22d3ee" stroke-width="3" opacity="0.6"/>
  <path d="M192 344 L120 392" stroke="#a78bfa" stroke-width="3" opacity="0.6"/>
</svg>
